<svg xmlns="http://www.w3.org/2000/svg" viewBox="0 0 24 24" fill="currentColor">
  <path d="M3 3h18v18H3V3zm16.525 13.707c-.131-.821-.666-1.511-2.252-2.155-.552-.259-1.165-.438-1.349-.854-.068-.248-.078-.382-.034-.529.113-.484.687-.629 1.137-.495.293.086.567.327.697.709.75-.49.75-.49 1.264-.805-.195-.407-.296-.595-.422-.737-.462-.478-1.081-.727-2.084-.701l-.519.076c-.5.138-.975.388-1.283.754-.946 1.013-.771 2.781.375 3.512 1.139.727 2.807.879 3.022 1.557.209.717-.521 1.177-1.443 1.058-.619-.085-.962-.406-1.337-1.058l-1.263.787c.155.399.343.593.604.894 1.344 1.295 4.696 1.229 5.297-1.086.021-.079.18-.671.059-1.384l.011-.011zM9.994 10l-.002 5.602c0 .584.007 1.118-.025 1.337-.076.494-.241.799-.561.979-.243.13-.541.163-.772.018-.23-.134-.355-.342-.463-.605-.029-.081-.069-.138-.072-.138l-1.259.796c.21.535.51.972.917 1.255.664.467 1.556.573 2.489.365.6-.159 1.118-.477 1.395-.973.327-.572.363-1.279.363-2.06V10h-2.01z"/>
</svg>
